<?xml version="1.0" encoding="UTF-8" standalone="no"?>
<svg width="120px" height="120px" viewBox="0 0 120 120" version="1.1" xmlns="http://www.w3.org/2000/svg" xmlns:xlink="http://www.w3.org/1999/xlink">
    <!-- Generator: Sketch 3.8.1 (29687) - http://www.bohemiancoding.com/sketch -->
    <title>DDG-logo_dax.v107</title>
    <desc>Created with Sketch.</desc>
    <defs>
        <circle id="path-1" cx="50.8333333" cy="50.8333333" r="50.25"></circle>
        <linearGradient x1="3.08360239%" y1="49.3682858%" x2="100.591697%" y2="49.3682858%" id="linearGradient-3">
            <stop stop-color="#6176B9" offset="0.56%"></stop>
            <stop stop-color="#394A9F" offset="69.1%"></stop>
        </linearGradient>
        <linearGradient x1="-0.00631578947%" y1="49.0063919%" x2="98.9315789%" y2="49.0063919%" id="linearGradient-4">
            <stop stop-color="#6176B9" offset="0.56%"></stop>
            <stop stop-color="#394A9F" offset="69.1%"></stop>
        </linearGradient>
    </defs>
    <g id="Page-1" stroke="none" stroke-width="1" fill="none" fill-rule="evenodd">
        <g id="DDG-logo_dax.v107">
            <g id="Group">
                <circle id="Oval" fill="#FFFFFF" cx="60" cy="60" r="57.5"></circle>
                <ellipse id="Oval" fill="#DE5833" cx="60" cy="60" rx="50.25" ry="50.25"></ellipse>
                <path d="M60,120 C26.9166667,120 0,93.0833333 0,60 C0,26.9166667 26.9166667,0 60,0 C93.0833333,0 120,26.9166667 120,60 C120,93.0833333 93.0833333,120 60,120 L60,120 Z M60,4.91666667 C29.6666667,4.91666667 4.91666667,29.5833333 4.91666667,60 C4.91666667,90.3333333 29.5833333,115.083333 60,115.083333 C90.4166667,115.083333 115.083333,90.4166667 115.083333,60 C115.083333,29.6666667 90.3333333,4.91666667 60,4.91666667 L60,4.91666667 Z" id="Shape" fill="#DE5833"></path>
                <g transform="translate(9.166667, 9.166667)">
                    <mask id="mask-2" fill="white">
                        <use xlink:href="#path-1"></use>
                    </mask>
                    <use id="Mask" fill="#DE5833" xlink:href="#path-1"></use>
                    <g mask="url(#mask-2)">
                        <g transform="translate(21.666667, 10.000000)">
                            <g id="Group" stroke-width="1" fill="none">
                                <path d="M50.25,117.25 C48.5,109 38,90.0833333 33.9166667,82.1666667 C30,74.25 26,63.0833333 27.8333333,55.75 C28.25,54.3333333 24.5,44.3333333 25.5,43.75 C34,38.25 36.1666667,44.3333333 39.5,42 C41.25,40.8333333 43.6666667,43 44.25,41 C46.4166667,33.3333333 41.3333333,20.0833333 35.4166667,14.4166667 C33.4166667,12.4166667 30.6666667,11.25 27.3333333,10.6666667 C26.1666667,8.91666667 24,7.33333333 21.25,5.75 C18.0833333,4 11,1.83333333 7.41666667,1.25 C4.83333333,0.833333333 4.25,1.41666667 3.25,1.66666667 C4.25,1.66666667 9,4 9.91666667,4.25 C8.91666667,4.83333333 6.33333333,4.25 4.58333333,5 C3.83333333,5.41666667 3,7 3,7.58333333 C7.91666667,7 15.5833333,7.58333333 20.1666667,9.58333333 C16.5833333,10 11.0833333,10.3333333 8.75,11.75 C1.83333333,15.3333333 -1.08333333,23.75 0.666666667,34 C2.41666667,44.0833333 10.5,81.0833333 12.9166667,93.3333333 C15.5,105.583333 7.41666667,113.666667 2.5,115.833333 L8,116.25 L6.25,120.166667 C12.75,120.916667 20.0833333,118.75 20.0833333,118.75 C18.6666667,122.666667 8.83333333,124.25 8.83333333,124.25 C8.83333333,124.25 13.5833333,125.666667 21.0833333,122.833333 C28.75,119.916667 33.3333333,118.083333 33.3333333,118.083333 L40.8333333,127.5 L43.75,120.583333 L50.6666667,127.833333 C50.4166667,127.333333 52,125.583333 50.25,117.25 L50.25,117.25 Z" id="Shape" fill="#D5D7D8"></path>
                                <path d="M52.4166667,115.5 C50.6666667,107.25 40.1666667,88.3333333 36.0833333,80.4166667 C32.1666667,72.5 28.1666667,61.3333333 30,54 C30.4166667,52.5833333 30.4166667,47.3333333 31.4166667,46.5 C39.9166667,41 39.3333333,46.3333333 42.6666667,43.9166667 C44.4166667,42.75 45.8333333,41.1666667 46.4166667,39 C48.5833333,31.3333333 43.5,18.0833333 37.5833333,12.4166667 C35.5833333,10.4166667 32.8333333,9.25 29.5,8.66666667 C28.3333333,6.91666667 26.1666667,5.33333333 23.4166667,3.75 C18.0833333,0.833333333 11.4166667,-0.166666667 5.08333333,0.833333333 C6.08333333,0.833333333 8.41666667,3 9.25,3.16666667 C7.83333333,4.16666667 4.16666667,3.91666667 4.16666667,6.08333333 C9.08333333,5.66666667 14.4166667,6.25 19.1666667,8.41666667 C15.5833333,8.83333333 12.25,9.83333333 9.91666667,11 C3,14.5833333 1.25,21.8333333 3,31.9166667 C4.75,42 12.8333333,79 15.25,91.25 C17.8333333,103.5 9.75,111.583333 4.83333333,113.75 L10.3333333,114.166667 L8.58333333,118.083333 C15.0833333,118.833333 22.4166667,116.666667 22.4166667,116.666667 C21,120.583333 11.1666667,122.166667 11.1666667,122.166667 C11.1666667,122.166667 15.9166667,123.583333 23.4166667,120.75 C31.0833333,117.833333 35.6666667,116 35.6666667,116 L39.25,125.416667 L46.1666667,118.5 L49.0833333,125.75 C48.6666667,125.75 54.1666667,124 52.4166667,115.5 L52.4166667,115.5 Z" id="Shape" fill="#FFFFFF"></path>
                                <path d="M10.8333333,32.5833333 C10.8333333,30.4166667 12.5833333,28.8333333 14.5833333,28.8333333 C16.75,28.8333333 18.3333333,30.5833333 18.3333333,32.5833333 C18.3333333,34.75 16.5833333,36.3333333 14.5833333,36.3333333 C12.4166667,36.3333333 10.8333333,34.75 10.8333333,32.5833333 L10.8333333,32.5833333 Z" id="Shape" fill="#2D4F8E"></path>
                                <path d="M15.1666667,31.1666667 C15.1666667,30.5833333 15.5833333,30.1666667 16.1666667,30.1666667 C16.75,30.1666667 17.1666667,30.5833333 17.1666667,31.1666667 C17.1666667,31.75 16.75,32.1666667 16.1666667,32.1666667 C15.75,32.1666667 15.1666667,31.75 15.1666667,31.1666667 L15.1666667,31.1666667 Z" id="Shape" fill="#FFFFFF"></path>
                                <path d="M36.6666667,30.1666667 C36.6666667,28.4166667 38.0833333,26.8333333 40,26.8333333 C41.75,26.8333333 43.3333333,28.25 43.3333333,30.1666667 C43.3333333,31.9166667 41.9166667,33.5 40,33.5 C38.25,33.5833333 36.6666667,32.1666667 36.6666667,30.1666667 L36.6666667,30.1666667 Z" id="Shape" fill="#2D4F8E"></path>
                                <path d="M40.5833333,29.1666667 C40.5833333,28.75 41,28.4166667 41.3333333,28.4166667 C41.75,28.4166667 42.0833333,28.8333333 42.0833333,29.1666667 C42.0833333,29.5833333 41.6666667,29.9166667 41.3333333,29.9166667 C41,30 40.5833333,29.5833333 40.5833333,29.1666667 L40.5833333,29.1666667 Z" id="Shape" fill="#FFFFFF"></path>
                                <path d="M15.5833333,21.5 C15.5833333,21.5 12.6666667,20.0833333 9.83333333,21.9166667 C7.08333333,23.6666667 7.08333333,25.5 7.08333333,25.5 C7.08333333,25.5 5.5,22.1666667 9.41666667,20.5833333 C13.8333333,19 15.5833333,21.5 15.5833333,21.5 L15.5833333,21.5 Z" id="Shape" fill="url(#linearGradient-3)"></path>
                                <path d="M42,21.3333333 C42,21.3333333 40,20.1666667 38.25,20.1666667 C34.9166667,20.1666667 34.0833333,21.75 34.0833333,21.75 C34.0833333,21.75 34.6666667,18.1666667 38.8333333,19 C41.1666667,19.1666667 42,21.3333333 42,21.3333333 L42,21.3333333 Z" id="Shape" fill="url(#linearGradient-4)"></path>
                            </g>
                            <path d="M26.25,47.1666667 C26.6666667,44.8333333 32.5833333,40.5 36.6666667,40.25 C40.8333333,40.0833333 42.1666667,40.0833333 45.75,39.25 C49.3333333,38.5 58.3333333,36.0833333 60.9166667,34.9166667 C63.5,33.75 74.0833333,35.5 66.6666667,39.6666667 C63.5,41.4166667 54.6666667,44.75 48.3333333,46.75 C42,48.5 38.25,45 36.3333333,48.1666667 C34.75,50.5 35.9166667,53.9166667 43.4166667,54.6666667 C53.5,55.6666667 63.0833333,50.1666667 64.0833333,53.0833333 C65.0833333,56 55.4166667,59.5833333 49.5,59.75 C43.5833333,59.9166667 31.5833333,55.8333333 29.8333333,54.6666667 C28,53.0833333 25.5833333,50.25 26.25,47.1666667 L26.25,47.1666667 Z" id="Shape" fill="#FDD20A"></path>
                        </g>
                    </g>
                </g>
                <g transform="translate(46.666667, 86.666667)" id="Shape">
                    <path d="M14.9166667,8.25 C14.9166667,8.25 0.75,0.75 0.5,3.75 C0.333333333,6.91666667 0.5,19.3333333 2.08333333,20.3333333 C3.66666667,21.3333333 15.5,14.25 15.5,14.25 L14.9166667,8.25 L14.9166667,8.25 Z" fill="#65BC46"></path>
                    <path d="M20.4166667,7.58333333 C20.4166667,7.58333333 30.0833333,0.333333333 32.25,0.666666667 C34.4166667,1.08333333 34.8333333,16.25 33,17 C31.0833333,17.8333333 20,13.3333333 20,13.3333333 L20.4166667,7.58333333 L20.4166667,7.58333333 Z" fill="#65BC46"></path>
                    <path d="M11.5833333,9 C11.5833333,13.9166667 10.8333333,16.0833333 13,16.5 C15.1666667,16.9166667 19.0833333,16.5 20.5,15.5 C21.9166667,14.5 20.6666667,8.25 20.3333333,7 C19.6666667,5.83333333 11.5833333,6.83333333 11.5833333,9 L11.5833333,9 Z" fill="#43A244"></path>
                    <path d="M12.3333333,7.83333333 C12.3333333,12.75 11.5833333,14.9166667 13.75,15.3333333 C15.9166667,15.75 19.8333333,15.3333333 21.25,14.3333333 C22.6666667,13.3333333 21.4166667,7.08333333 21.0833333,5.83333333 C20.5833333,4.83333333 12.3333333,5.66666667 12.3333333,7.83333333 L12.3333333,7.83333333 Z" fill="#65BC46"></path>
                </g>
            </g>
        </g>
    </g>
</svg>